# xmcd
#
# Track frame offsets:
#	150
#	17165
#	32975
#	49587
#	60687
#	87130
#	104300
#	121380
#	143957
#	154180
#	169045
#	192255
#	200612
#	217382
#	231265
#	247227
#	261172
#	271375
#	279680
#	298795
#
# Disc length: 4316 seconds
#
# Revision: 4
# Processed by: cddbd v1.5.2PL0 Copyright (c) Steve Scherf et al.
# Submitted via: audiograbber 1.83.01
#
DISCID=3e10da14
DTITLE=Screamin' Jay Hawkins - Alligator Wine
DYEAR=1997
DGENRE=R&B
TTITLE0=Alligator Wine
TTITLE1=I Put A Spell On You
TTITLE2=Feast Of The Mau Mau
TTITLE3=Itty Bitty Pretty One
TTITLE4=Same Damn Thing
TTITLE5=Deep In Love
TTITLE6=Please Don't Leave Me
TTITLE7=What's Gonna Happen On The 8th Day
TTITLE8=I Feel Alright
TTITLE9=It's Only Make Believe
TTITLE10=Poor Folks
TTITLE11=Your Kind Of Love
TTITLE12=Don't Deceive Me
TTITLE13=All Night
TTITLE14=I Don't Know
TTITLE15=Serving Time
TTITLE16=What Good Is It (Part One)
TTITLE17=Mountain Jive
TTITLE18=Portrait Of A Man
TTITLE19=Constipation Blues
EXTD=
EXTT0=
EXTT1=
EXTT2=
EXTT3=
EXTT4=
EXTT5=
EXTT6=
EXTT7=
EXTT8=
EXTT9=
EXTT10=
EXTT11=
EXTT12=
EXTT13=
EXTT14=
EXTT15=
EXTT16=
EXTT17=
EXTT18=
EXTT19=
PLAYORDER=
